# xmcd
#
# Track frame offsets: 
#        150
#        15334
#        26543
#        48351
#        61484
#        81787
#        106398
#        122552
#        136918
#        152397
#        173188
#        189522
#        206525
#        218581
#        233942
#        245317
#        262871
#
# Disc length: 3814 seconds
#
# Revision: 3
# Processed by: cddbd v1.5.2PL0 Copyright (c) Steve Scherf et al.
# Submitted via: ExactAudioCopy v1.0b1
#
DISCID=d30ee411
DTITLE=Various Artist - Tribute to Frank Sinatra
DYEAR=2008
DGENRE=Jazz
TTITLE0=Jamie Cullum - Devil May Care
TTITLE1=Birelli Lagrene - You Make Me Feel So Young
TTITLE2=Diana Krall - On The Sunny Side Of The Street
TTITLE3=Lemmy Constantine - Fly Me To The Moon
TTITLE4=Michel Petrucciani and Stephane Grappelli - These Follish Things
TTITLE5=Elizabeth Kontomanou - I've Got The World On A String
TTITLE6=Ingar Kristiansen and Torstein Ellingsen - The Way You Look Toni
TTITLE6=ght
TTITLE7=Cormac Kenevey - It May Happen To You
TTITLE8=Stacey Kent - The Best Is Yet To Come
TTITLE9=Philip Catherine - Sweet Lorraine
TTITLE10=Sara Lazarus - In The Wee Small Hours Of The Morning
TTITLE11=Sylvain Luc, Jean-Marc Jafet and Andre Ceccarelli - Moon River
TTITLE12=Anne Ducros - Taking A Chance on Love
TTITLE13=Alan Paul - You're Nobody 'Til Somebody Loves You
TTITLE14=Shirley Bassey - Strangers In The Night
TTITLE15=Oscar Peterson - You Go To My Head
TTITLE16=The Drifters - My Way
EXTD=YEAR: 2008
EXTT0=
EXTT1=
EXTT2=
EXTT3=
EXTT4=
EXTT5=
EXTT6=
EXTT7=
EXTT8=
EXTT9=
EXTT10=
EXTT11=
EXTT12=
EXTT13=
EXTT14=
EXTT15=
EXTT16=
PLAYORDER=
